<svg width="320" height="18" viewBox="0 0 320 18" fill="none" xmlns="http://www.w3.org/2000/svg">
  <path d="M0 9H126" stroke="#142082" stroke-width="1.25"/>
  <path d="M194 9H320" stroke="#142082" stroke-width="1.25"/>
  <g stroke="#142082" stroke-width="1.15" stroke-linecap="round" stroke-linejoin="round">
    <path d="M160 4.2C154.8 4.2 150.6 7.1 150.6 10.8C150.6 13.1 152.4 14.9 155.1 14.9C158.1 14.9 160.1 12.8 160.1 9.3C160.1 6.5 158.6 4.7 156.5 3.7"/>
    <path d="M160 4.2C165.2 4.2 169.4 7.1 169.4 10.8C169.4 13.1 167.6 14.9 164.9 14.9C161.9 14.9 159.9 12.8 159.9 9.3C159.9 6.5 161.4 4.7 163.5 3.7"/>
    <path d="M160 3.1V14.7"/>
    <path d="M147.8 6.2C150.2 6.8 152 8.3 153.3 10.4"/>
    <path d="M172.2 6.2C169.8 6.8 168 8.3 166.7 10.4"/>
    <path d="M145.7 8.8C148.4 9.1 150.4 10.1 151.9 11.7"/>
    <path d="M174.3 8.8C171.6 9.1 169.6 10.1 168.1 11.7"/>
  </g>
</svg>
